<svg xmlns="http://www.w3.org/2000/svg" width="128" height="128" viewBox="0 0 128 128">
  <defs>
    <style>
      .bg-dark { fill: #172139; }
      .segment-light { fill: #ffffff; }
      .segment-accent { fill: #3e99d4; }
    </style>
  </defs>
  
  <!-- Dark background with rounded corners -->
  <rect class="bg-dark" width="128" height="128" rx="16"/>
  
  <!-- 8Move icon centered and scaled -->
  <g transform="translate(24, 24) scale(0.27)">
    <!-- Top left segment (white for dark mode) -->
    <path class="segment-light" d="M253.37,111.43a110,110,0,0,0-97.73-72.14l-31.36-38v40l.07,0v33l1.67-.54A78.65,78.65,0,0,1,150.29,70c29.88,0,56.67,16.25,69.92,42.41l.35.7H254Z"/>
    
    <!-- Bottom left segment (white for dark mode) -->
    <path class="segment-light" d="M113.14,48.7V46.88l-1.71.62a110,110,0,0,0-72.14,97.73l-38,31.36h40l0-.07h33l-.54-1.67A79,79,0,0,1,70,150.58c0-29.88,16.25-56.67,42.41-69.91l.7-.36V48.7Z"/>
    
    <!-- Bottom right segment (white for dark mode) -->
    <path class="segment-light" d="M176.17,258.63v-33l-1.67.54A78.65,78.65,0,0,1,150.23,230c-29.88,0-56.67-16.25-69.92-42.41l-.35-.7H46.53l.62,1.71a110,110,0,0,0,97.73,72.14l31.35,38v-40Z"/>
    
    <!-- Top right segment (accent blue) -->
    <path class="segment-accent" d="M258.65,123.77l0,.06h-33l.54,1.67A79,79,0,0,1,230,149.78c0,29.88-16.25,56.67-42.41,69.91l-.7.35v33.43l1.71-.62a110,110,0,0,0,72.14-97.72l38-31.36Z"/>
    
    <!-- Center infinity symbol (accent blue) -->
    <path class="segment-accent" d="M184.08,112.17a39,39,0,0,0-60.07-12,40,40,0,0,0-13.87,35.53,40.81,40.81,0,0,0,33,34.9l-.42,4.87,14.75-6.89-13.35-9.33-.44,5.11-1-.17a35.15,35.15,0,0,1-14.08-6.22,35.64,35.64,0,0,1-14.18-24.86,36.22,36.22,0,0,1,8-26.66,36.6,36.6,0,0,1,27-13.31,37.48,37.48,0,0,1,38.29,32.58c0,.2.1.87.13,1s.13,1.5.14,1.75c0,.9.08,1.88.05,2.8,0,.46,0,.93,0,1.4,0-.47.06-.94.09-1.4A38.22,38.22,0,0,0,184.08,112.17Z"/>
    <path class="segment-accent" d="M189.86,164.46A40.71,40.71,0,0,0,157,129.64l.42-4.86-14.71,6.88L156,141l.44-5.1c.34,0,.67.11,1,.18a35,35,0,0,1,14,6.2A35.55,35.55,0,0,1,185.64,167a36.12,36.12,0,0,1-8,26.6,36.55,36.55,0,0,1-27,13.28,37.38,37.38,0,0,1-38.19-32.51c0-.2-.11-.86-.14-1s-.12-1.49-.13-1.74c0-.9-.08-1.88,0-2.79,0-.46,0-.93,0-1.4,0,.47-.06.93-.09,1.4a37.94,37.94,0,0,0,4,19,39,39,0,0,0,59.93,12A39.94,39.94,0,0,0,189.86,164.46Z"/>
  </g>
</svg>
